<svg width="48" height="48" viewBox="0 0 48 48" fill="none" xmlns="http://www.w3.org/2000/svg">
<path d="M0 24C0 37.2548 10.7452 48 24 48C37.2548 48 48 37.2548 48 24C48 10.7452 37.2548 0 24 0C10.7452 0 0 10.7452 0 24Z" fill="#1877F2"/>
<path d="M36 24.0001C36 17.4001 30.6 12.0001 24 12.0001C17.4 12.0001 12 17.4001 12 24.0001C12 30.0001 16.35 34.9501 22.05 35.8501V27.4501H19.05V24.0001H22.05V21.3001C22.05 18.3001 23.85 16.6501 26.55 16.6501C27.9 16.6501 29.25 16.9501 29.25 16.9501V19.9501H27.75C26.25 19.9501 25.8 20.8501 25.8 21.7501V24.0001H29.1L28.5 27.4501H25.65V36.0001C31.65 35.1001 36 30.0001 36 24.0001Z" fill="white"/>
</svg>
