<svg width="48" height="48" viewBox="0 0 48 48" fill="none" xmlns="http://www.w3.org/2000/svg">
<path d="M0 24C0 37.2548 10.7452 48 24 48C37.2548 48 48 37.2548 48 24C48 10.7452 37.2548 0 24 0C10.7452 0 0 10.7452 0 24Z" fill="#F00073"/>
<path d="M23.9998 13.8004C27.2998 13.8004 27.7498 13.8004 29.0998 13.8004C30.2998 13.8004 30.8998 14.1004 31.3498 14.2504C31.9498 14.5504 32.3998 14.7004 32.8498 15.1504C33.2998 15.6004 33.5998 16.0504 33.7498 16.6504C33.8998 17.1004 34.0498 17.7004 34.1998 18.9004C34.1998 20.2504 34.1998 20.5504 34.1998 24.0004C34.1998 27.4504 34.1998 27.7504 34.1998 29.1004C34.1998 30.3004 33.8998 30.9004 33.7498 31.3504C33.4498 31.9504 33.2998 32.4004 32.8498 32.8504C32.3998 33.3004 31.9498 33.6004 31.3498 33.7504C30.8998 33.9004 30.2998 34.0504 29.0998 34.2004C27.7498 34.2004 27.4498 34.2004 23.9998 34.2004C20.5498 34.2004 20.2498 34.2004 18.8998 34.2004C17.6998 34.2004 17.0998 33.9004 16.6498 33.7504C16.0498 33.4504 15.5998 33.3004 15.1498 32.8504C14.6998 32.4004 14.3998 31.9504 14.2498 31.3504C14.0998 30.9004 13.9498 30.3004 13.7998 29.1004C13.7998 27.7504 13.7998 27.4504 13.7998 24.0004C13.7998 20.5504 13.7998 20.2504 13.7998 18.9004C13.7998 17.7004 14.0998 17.1004 14.2498 16.6504C14.5498 16.0504 14.6998 15.6004 15.1498 15.1504C15.5998 14.7004 16.0498 14.4004 16.6498 14.2504C17.0998 14.1004 17.6998 13.9504 18.8998 13.8004C20.2498 13.8004 20.6998 13.8004 23.9998 13.8004ZM23.9998 11.5504C20.5498 11.5504 20.2498 11.5504 18.8998 11.5504C17.5498 11.5504 16.6498 11.8504 15.8998 12.1504C15.1498 12.4504 14.3998 12.9004 13.6498 13.6504C12.8998 14.4004 12.5998 15.0004 12.1498 15.9004C11.8498 16.6504 11.6998 17.5504 11.5498 18.9004C11.5498 20.2504 11.5498 20.7004 11.5498 24.0004C11.5498 27.4504 11.5498 27.7504 11.5498 29.1004C11.5498 30.4504 11.8498 31.3504 12.1498 32.1004C12.4498 32.8504 12.8998 33.6004 13.6498 34.3504C14.3998 35.1004 14.9998 35.4004 15.8998 35.8504C16.6498 36.1504 17.5498 36.3004 18.8998 36.4504C20.2498 36.4504 20.6998 36.4504 23.9998 36.4504C27.2998 36.4504 27.7498 36.4504 29.0998 36.4504C30.4498 36.4504 31.3498 36.1504 32.0998 35.8504C32.8498 35.5504 33.5998 35.1004 34.3498 34.3504C35.0998 33.6004 35.3998 33.0004 35.8498 32.1004C36.1498 31.3504 36.2998 30.4504 36.4498 29.1004C36.4498 27.7504 36.4498 27.3004 36.4498 24.0004C36.4498 20.7004 36.4498 20.2504 36.4498 18.9004C36.4498 17.5504 36.1498 16.6504 35.8498 15.9004C35.5498 15.1504 35.0998 14.4004 34.3498 13.6504C33.5998 12.9004 32.9998 12.6004 32.0998 12.1504C31.3498 11.8504 30.4498 11.7004 29.0998 11.5504C27.7498 11.5504 27.4498 11.5504 23.9998 11.5504Z" fill="white"/>
<path d="M23.9998 17.5504C20.3998 17.5504 17.5498 20.4004 17.5498 24.0004C17.5498 27.6004 20.3998 30.4504 23.9998 30.4504C27.5998 30.4504 30.4498 27.6004 30.4498 24.0004C30.4498 20.4004 27.5998 17.5504 23.9998 17.5504ZM23.9998 28.2004C21.7498 28.2004 19.7998 26.4004 19.7998 24.0004C19.7998 21.7504 21.5998 19.8004 23.9998 19.8004C26.2498 19.8004 28.1998 21.6004 28.1998 24.0004C28.1998 26.2504 26.2498 28.2004 23.9998 28.2004Z" fill="white"/>
<path d="M30.5998 18.9004C31.4282 18.9004 32.0998 18.2288 32.0998 17.4004C32.0998 16.572 31.4282 15.9004 30.5998 15.9004C29.7714 15.9004 29.0998 16.572 29.0998 17.4004C29.0998 18.2288 29.7714 18.9004 30.5998 18.9004Z" fill="white"/>
</svg>
