<svg width="48" height="48" viewBox="0 0 48 48" fill="none" xmlns="http://www.w3.org/2000/svg">
<path d="M0 24C0 10.7452 10.7452 0 24 0C37.2548 0 48 10.7452 48 24C48 37.2548 37.2548 48 24 48C10.7452 48 0 37.2548 0 24Z" fill="#FF8A00"/>
<path fill-rule="evenodd" clip-rule="evenodd" d="M31.3144 17.2059C31.3144 21.2097 28.0504 24.4737 24.0464 24.4737C19.9991 24.4737 16.7351 21.2097 16.7351 17.2059C16.7351 13.202 19.9991 9.93799 24.0464 9.93799C28.0504 9.93799 31.3144 13.202 31.3144 17.2059ZM27.0494 17.2059C27.0494 15.5521 25.7002 14.203 24.0464 14.203C22.3492 14.203 21 15.5521 21.0436 17.2059C21.0436 18.8596 22.3928 20.2087 24.0464 20.2087C25.7002 20.2087 27.0494 18.8596 27.0494 17.2059Z" fill="white"/>
<path d="M31.1838 28.6953C29.8782 29.5221 28.442 30.0879 26.9624 30.4361L31.0968 34.4399C31.9236 35.2669 31.9236 36.6159 31.0968 37.4429C30.27 38.2697 28.9208 38.2697 28.094 37.4429L24.09 33.4389L20.0862 37.4429C19.651 37.8345 19.1288 38.0521 18.563 38.0521C17.9972 38.0521 17.475 37.8781 17.0398 37.4429C16.2129 36.6159 16.2129 35.2669 17.0398 34.4399L21.0872 30.3925C19.6075 30.0443 18.1713 29.4787 16.8657 28.6517C15.8647 28.0425 15.5601 26.7369 16.1258 25.7359C16.7787 24.7349 18.0843 24.4739 19.0852 25.0831C22.0446 26.9545 25.9178 26.9545 28.8772 25.0831C29.8782 24.4303 31.2274 24.7349 31.8366 25.7359C32.4894 26.7369 32.1848 28.0859 31.1838 28.6953Z" fill="white"/>
</svg>
