<svg width="48" height="48" viewBox="0 0 48 48" fill="none" xmlns="http://www.w3.org/2000/svg">
<path d="M48 24C48 10.7452 37.2548 0 24 0C10.7452 0 0 10.7452 0 24C0 37.2548 10.7452 48 24 48C37.2548 48 48 37.2548 48 24Z" fill="black"/>
<path d="M30.0392 20.1075C31.8397 21.3992 34.0455 22.1593 36.4279 22.1593V17.5585C35.977 17.5586 35.5273 17.5115 35.0862 17.4177V21.0391C32.704 21.0391 30.4985 20.2791 28.6975 18.9875V28.3762C28.6975 33.0729 24.9036 36.8801 20.2238 36.8801C18.4777 36.8801 16.8548 36.3503 15.5066 35.4417C17.0453 37.0206 19.1912 38.0001 21.5652 38.0001C26.2453 38.0001 30.0394 34.193 30.0394 29.4961V20.1075H30.0392ZM31.6943 15.466C30.7741 14.4571 30.1699 13.1533 30.0392 11.7119V11.1201H28.7677C29.0878 12.9522 30.1794 14.5173 31.6943 15.466ZM18.4665 31.8376C17.9524 31.1611 17.6746 30.3335 17.6758 29.4826C17.6758 27.3345 19.4111 25.5928 21.552 25.5928C21.951 25.5927 22.3476 25.654 22.7278 25.7751V21.0716C22.2835 21.0104 21.835 20.9845 21.3867 20.994V24.655C21.0062 24.5339 20.6094 24.4724 20.2104 24.4728C18.0695 24.4728 16.3342 26.2143 16.3342 28.3627C16.3342 29.8818 17.2016 31.1969 18.4665 31.8376Z" fill="#FF004F"/>
<path d="M28.6978 18.9875C30.4988 20.2791 32.7043 21.0391 35.0865 21.0391V17.4177C33.7568 17.1334 32.5796 16.4361 31.6946 15.4661C30.1796 14.5174 29.0881 12.9522 28.768 11.1202H25.4283V29.496C25.4208 31.6382 23.6884 33.3728 21.5521 33.3728C20.2932 33.3728 19.1748 32.7706 18.4665 31.8377C17.2017 31.1971 16.3343 29.8818 16.3343 28.3629C16.3343 26.2148 18.0696 24.473 20.2105 24.473C20.6206 24.473 21.016 24.5371 21.3869 24.6552V20.9942C16.7893 21.0896 13.0918 24.8595 13.0918 29.4961C13.0918 31.8106 14.0126 33.9088 15.507 35.4419C16.8552 36.3504 18.4781 36.8803 20.2242 36.8803C24.9041 36.8803 28.6979 33.0729 28.6979 28.3763V18.9875H28.6978Z" fill="white"/>
<path d="M35.0863 17.4176V16.4384C33.8872 16.4402 32.7117 16.1032 31.6944 15.4659C32.5949 16.4554 33.7808 17.1376 35.0863 17.4176ZM28.7678 11.1201C28.7373 10.945 28.7138 10.7688 28.6976 10.5919V10.0001H24.0864V28.3761C24.079 30.518 22.3467 32.2526 20.2102 32.2526C19.583 32.2526 18.9908 32.1032 18.4663 31.8377C19.1746 32.7705 20.293 33.3726 21.5519 33.3726C23.688 33.3726 25.4207 31.6382 25.4281 29.496V11.1201H28.7678ZM21.3868 20.9941V19.9517C21.0015 19.8988 20.6131 19.8723 20.2241 19.8725C15.5439 19.8724 11.75 23.6797 11.75 28.3761C11.75 31.3204 13.2411 33.9152 15.5069 35.4416C14.0124 33.9086 13.0917 31.8103 13.0917 29.4959C13.0917 24.8594 16.7891 21.0894 21.3868 20.9941Z" fill="#00F2EA"/>
</svg>
