<svg width="48" height="48" viewBox="0 0 48 48" fill="none" xmlns="http://www.w3.org/2000/svg">
<path d="M48 24C48 10.7452 37.2548 0 24 0C10.7452 0 0 10.7452 0 24C0 37.2548 10.7452 48 24 48C37.2548 48 48 37.2548 48 24Z" fill="white"/>
<path d="M12 23.5201C12 18.0881 12 15.3761 13.68 13.6801C15.384 12.0001 18.096 12.0001 23.52 12.0001H24.48C29.912 12.0001 32.624 12.0001 34.32 13.6801C36 15.3841 36 18.0961 36 23.5201V24.4801C36 29.9121 36 32.6241 34.32 34.3201C32.616 36.0001 29.904 36.0001 24.48 36.0001H23.52C18.088 36.0001 15.376 36.0001 13.68 34.3201C12 32.6161 12 29.9041 12 24.4801V23.5201Z" fill="#0077FF"/>
<path d="M24.7681 29.2879C19.2961 29.2879 16.1761 25.5439 16.0481 19.3039H18.8001C18.8881 23.8799 20.9041 25.8159 22.5041 26.2159V19.3039H25.0881V23.2479C26.6641 23.0799 28.3281 21.2799 28.8881 19.2959H31.4641C31.2541 20.3229 30.8345 21.2956 30.2316 22.1531C29.6287 23.0107 28.8554 23.7347 27.9601 24.2799C28.9592 24.7772 29.8416 25.4807 30.549 26.3439C31.2564 27.2071 31.7728 28.2105 32.0641 29.2879H29.2241C28.6161 27.3919 27.0961 25.9199 25.0881 25.7199V29.2879H24.7761H24.7681Z" fill="white"/>
</svg>
