<svg width="48" height="48" viewBox="0 0 48 48" fill="none" xmlns="http://www.w3.org/2000/svg">
<path d="M0 24C0 37.2548 10.7452 48 24 48C37.2548 48 48 37.2548 48 24C48 10.7452 37.2548 0 24 0C10.7452 0 0 10.7452 0 24Z" fill="#FF0000"/>
<path d="M35.4 18.15C35.1 17.1 34.35 16.35 33.3 16.05C31.5 15.6 23.85 15.6 23.85 15.6C23.85 15.6 16.35 15.6 14.4 16.05C13.35 16.35 12.6 17.1 12.3 18.15C12 20.1 12 24 12 24C12 24 12 27.9 12.45 29.85C12.75 30.9 13.5 31.65 14.55 31.95C16.35 32.4 24 32.4 24 32.4C24 32.4 31.5 32.4 33.45 31.95C34.5 31.65 35.25 30.9 35.55 29.85C36 27.9 36 24 36 24C36 24 36 20.1 35.4 18.15ZM21.6 27.6V20.4L27.9 24L21.6 27.6Z" fill="white"/>
</svg>
